HIERARCHY
ROOT root
{
	OFFSET	0	13.1	24.9
	CHANNELS 6  Xposition Yposition Zposition Xrotation Yrotation Zrotation
	JOINT spine_1
	{
		OFFSET	0	9.99999	0
		CHANNELS 3  Xrotation Yrotation Zrotation
		JOINT spine_2
		{
			OFFSET	0	112	-10
			CHANNELS 3  Xrotation Yrotation Zrotation
			JOINT spine_3
			{
				OFFSET	0	206.5	19.3
				CHANNELS 3  Xrotation Yrotation Zrotation
				JOINT spine_4
				{
					OFFSET	0	110.4	14.6
					CHANNELS 3  Xrotation Yrotation Zrotation
					JOINT neck_1
					{
						OFFSET	0	71.8	-50.3
						CHANNELS 3  Xrotation Yrotation Zrotation
						JOINT neck_2
						{
							OFFSET	0	86.2	-25.8
							CHANNELS 3  Xrotation Yrotation Zrotation
							JOINT head_ee
							{
								OFFSET	0	179.8	-8.7
								CHANNELS 3  Xrotation Yrotation Zrotation
								End Site
								{
									OFFSET	1	0	0
								}
							}
						}
					}
					JOINT left_clavicle
					{
						OFFSET	-43.2	22.4	-70.8
						CHANNELS 3  Xrotation Yrotation Zrotation
						JOINT left_shoulder
						{
							OFFSET	-93.9	-5.79999	48.7
							CHANNELS 3  Xrotation Yrotation Zrotation
							JOINT left_elbow
							{
								OFFSET	-291.4	-30.8	15.2
								CHANNELS 3  Xrotation Yrotation Zrotation
								JOINT left_lowarm_twist
								{
									OFFSET	-110.7	-3.89999	13.6
									CHANNELS 3  Xrotation Yrotation Zrotation
									JOINT left_hand
									{
										OFFSET	-110.7	-3.89999	13.6
										CHANNELS 3  Xrotation Yrotation Zrotation
										JOINT left_ee
										{
											OFFSET	-80.8	-5.10001	12.1
											CHANNELS 3  Xrotation Yrotation Zrotation
											End Site
											{
												OFFSET	1	0	0
											}
										}
									}
								}
							}
						}
					}
					JOINT right_clavicle
					{
						OFFSET	43.2	22.4	-70.8
						CHANNELS 3  Xrotation Yrotation Zrotation
						JOINT right_shoulder
						{
							OFFSET	93.9	-5.79999	48.7
							CHANNELS 3  Xrotation Yrotation Zrotation
							JOINT right_elbow
							{
								OFFSET	291.4	-30.8	15.2
								CHANNELS 3  Xrotation Yrotation Zrotation
								JOINT right_lowarm_twist
								{
									OFFSET	110.7	-3.89999	13.6
									CHANNELS 3  Xrotation Yrotation Zrotation
									JOINT right_hand
									{
										OFFSET	110.7	-3.89999	13.6
										CHANNELS 3  Xrotation Yrotation Zrotation
										JOINT right_ee
										{
											OFFSET	80.8	-5.10001	12.1
											CHANNELS 3  Xrotation Yrotation Zrotation
											End Site
											{
												OFFSET	1	0	0
											}
										}
									}
								}
							}
						}
					}
				}
			}
		}
	}
	JOINT left_hip
	{
		OFFSET	-82.8	-127.5	0.300001
		CHANNELS 3  Xrotation Yrotation Zrotation
		JOINT left_knee
		{
			OFFSET	-28.2	-396.7	2.2
			CHANNELS 3  Xrotation Yrotation Zrotation
			JOINT left_ankle
			{
				OFFSET	-11.7	-411.3	35.4
				CHANNELS 3  Xrotation Yrotation Zrotation
				JOINT left_toes
				{
					OFFSET	0	-60	-88.6
					CHANNELS 3  Xrotation Yrotation Zrotation
					JOINT left_foot_ee
					{
						OFFSET	-22.5	-16.5	-42.2
						CHANNELS 3  Xrotation Yrotation Zrotation
						End Site
						{
							OFFSET	1	0	0
						}
					}
				}
			}
		}
	}
	JOINT right_hip
	{
		OFFSET	82.8	-127.5	0.300001
		CHANNELS 3  Xrotation Yrotation Zrotation
		JOINT right_knee
		{
			OFFSET	28.2	-396.7	2.2
			CHANNELS 3  Xrotation Yrotation Zrotation
			JOINT right_ankle
			{
				OFFSET	11.7	-411.3	35.4
				CHANNELS 3  Xrotation Yrotation Zrotation
				JOINT right_toes
				{
					OFFSET	0	-60	-88.6
					CHANNELS 3  Xrotation Yrotation Zrotation
					JOINT right_foot_ee
					{
						OFFSET	22.5	-16.5	-42.2
						CHANNELS 3  Xrotation Yrotation Zrotation
						End Site
						{
							OFFSET	1	0	0
						}
					}
				}
			}
		}
	}
}
MOTION
Frames: 13
Frame Time: 0.02
1251.29 669.372 -1394.08 -8.30898 41.7923 13.9045 4.45141 0.0205163 -1.59118 4.45281 0.121713 -1.58665 4.44845 0.332874 -1.55612 4.44508 0.0829689 -1.58915 -1.55726 15.1987 -2.91359 -0.93525 29.7219 -1.29842 -0.0 0.0 -0.0 -3.44089 24.23 -1.83983 -32.8545 -32.0261 71.4612 0.782803 -21.1951 0.146465 -8.67236 -0.38503 1.03866 3.34354 7.8255 25.89 -0.0 0.0 -0.0 9.92677 10.7202 -19.6621 -1.44548 25.5874 -66.762 1.75079 40.9311 -0.653436 -4.68125 0.188276 -0.567833 4.03946 20.77 -18.098 0.0 0.0 0.0 28.2289 -23.7271 -18.4552 -20.6393 0.287491 3.13712 37.3534 13.3629 -4.66711 27.0814 -0.0 -0.0 -0.0 0.0 -0.0 5.99256 58.9934 -18.0036 -21.843 -0.269189 -3.32091 40.8225 -12.435 4.97125 15.7563 -0.0 -0.0 0.0 0.0 0.0 
1228.77 668.148 -1401.02 -8.81044 40.8732 14.9374 4.46563 -0.085545 -1.89545 4.46762 0.0352184 -1.89705 4.46504 0.288129 -1.87538 4.46014 -0.0116125 -1.89734 1.54174 15.4866 -3.86053 2.58141 30.5397 -3.14293 -0.0 0.0 -0.0 -3.24222 24.5755 -1.49959 -31.3935 -28.4563 72.3292 0.826068 -22.2547 0.162481 -9.61297 -0.436153 1.14757 2.14008 10.3042 18.292 -0.0 0.0 -0.0 10.1019 10.1708 -20.0546 -2.87387 25.4281 -66.9651 1.53351 37.2198 -0.516407 -5.92509 0.246062 -0.716 4.28712 20.5006 -19.9606 0.0 0.0 0.0 27.0676 -24.3354 -19.6208 -19.7086 0.298992 2.99477 35.6743 14.7276 -4.52162 26.2815 -0.0 -0.0 -0.0 0.0 -0.0 8.07416 59.7185 -19.832 -23.8349 -0.230432 -3.6241 40.2326 -14.46 4.94549 17.106 -0.0 -0.0 0.0 0.0 0.0 
1205.14 672.65 -1405.85 -8.77283 40.0195 14.8509 4.5441 -0.175276 -1.94295 4.54619 -0.0513094 -1.95016 4.54641 0.206667 -1.93986 4.54117 -0.102232 -1.94816 0.538583 15.4808 -3.05964 1.40092 30.035 -1.98202 -0.0 0.0 -0.0 -3.58625 24.5564 -1.96618 -29.3483 -26.539 73.4813 0.952086 -25.2498 0.213256 -9.98024 -0.4566 1.18987 1.86685 12.1342 17.0824 -0.0 0.0 -0.0 10.1619 8.2143 -20.1988 -5.61739 24.7563 -66.7828 1.39718 34.686 -0.436344 -6.23365 0.260895 -0.752562 3.99476 18.8232 -18.8372 0.0 0.0 0.0 25.1455 -25.6175 -18.942 -18.8679 0.307392 2.86606 31.5679 17.7283 -4.13975 23.8099 -0.0 -0.0 -0.0 0.0 -0.0 10.5304 59.4945 -21.158 -28.3731 -0.102933 -4.30871 39.5734 -14.545 4.88756 17.9518 -0.0 -0.0 0.0 0.0 0.0 
1177.57 679.021 -1412.69 -7.86971 40.0697 14.5324 4.4085 -0.277194 -2.15105 4.41106 -0.139789 -2.16432 4.41456 0.152184 -2.16348 4.40808 -0.191326 -2.16037 0.191568 15.1254 -2.85602 0.967799 29.2896 -1.69115 -0.0 0.0 -0.0 -2.62428 24.6013 -0.665923 -28.0143 -27.2857 71.6604 1.00275 -26.4147 0.235335 -9.40622 -0.424762 1.1237 2.09221 10.8866 18.1679 -0.0 0.0 -0.0 9.45927 7.34702 -18.6817 -9.33947 24.8509 -66.5169 1.35631 33.8944 -0.413315 -8.15738 0.357801 -0.97868 5.1485 24.7412 -23.447 0.0 0.0 0.0 24.1926 -23.1493 -17.8074 -19.558 0.300636 2.97172 29.7532 19.0967 -3.96152 23.6114 -0.0 -0.0 -0.0 0.0 -0.0 11.2535 58.6418 -21.6761 -29.8388 -0.0502092 -4.52746 41.1327 -16.3451 5.05545 18.2289 -0.0 -0.0 0.0 0.0 0.0 
1147.14 686.423 -1417.88 -6.61506 40.6627 13.6294 4.27452 -0.490736 -2.4404 4.27777 -0.334501 -2.46666 4.29003 0.00510862 -2.48922 4.28159 -0.387961 -2.45883 -0.251883 14.7938 -1.7909 0.375862 27.9077 -0.439125 -0.0 0.0 -0.0 -3.38423 23.7482 -1.86437 -23.1843 -22.9416 76.2616 0.973802 -25.7519 0.222605 -11.5903 -0.549432 1.37374 0.93004 15.2903 12.0914 -0.0 0.0 -0.0 9.22761 6.92972 -18.1869 -11.8446 22.1799 -65.116 1.1535 29.743 -0.306317 -7.84939 0.341776 -0.942696 4.6439 21.2093 -22.0531 0.0 0.0 0.0 21.3686 -23.072 -16.5662 -19.3629 0.302674 2.94187 29.6271 22.67 -4.01217 23.7959 -0.0 -0.0 -0.0 0.0 -0.0 14.811 56.51 -24.1934 -35.547 0.20804 -5.36489 40.8361 -18.3321 5.06767 19.2776 -0.0 -0.0 0.0 0.0 0.0 
1122.97 689.628 -1425.13 -6.00417 40.4365 13.5099 4.22952 -0.677757 -2.61438 4.23317 -0.510084 -2.65218 4.25442 -0.142034 -2.69701 4.24472 -0.566045 -2.64081 -1.11056 14.9601 -0.464212 -0.61484 27.2889 1.20707 -0.0 0.0 -0.0 -2.04507 23.2832 -0.114713 -25.6285 -29.694 70.2269 1.11382 -28.8871 0.286892 -10.1377 -0.465453 1.20797 1.5755 12.4434 15.2616 -0.0 0.0 -0.0 8.85723 8.53086 -17.3805 -14.6689 23.3913 -64.8659 1.0095 26.568 -0.238345 -9.45374 0.427373 -1.12919 5.14208 23.1343 -24.4069 0.0 0.0 0.0 18.7203 -21.0438 -16.6652 -18.3951 0.311286 2.79362 27.7438 21.8075 -3.77757 23.2628 -0.0 -0.0 -0.0 0.0 -0.0 13.7378 50.6671 -22.4148 -38.9178 0.399359 -5.8462 40.0613 -17.3368 4.9779 19.5137 -0.0 -0.0 0.0 0.0 0.0 
1108.33 693.507 -1428.51 -5.32197 40.7127 13.5052 3.99448 -0.690789 -2.69226 3.99837 -0.518139 -2.73072 4.02083 -0.127939 -2.77646 4.01052 -0.56466 -2.72149 -1.01119 14.9781 -0.805537 -0.488697 27.5758 0.8194 -0.0 0.0 -0.0 -1.7945 22.7326 0.140677 -21.4413 -28.0311 70.1999 1.09501 -28.4763 0.277864 -9.96025 -0.455481 1.18757 1.33347 13.724 14.127 -0.0 0.0 -0.0 8.86421 9.2903 -17.3823 -16.0848 23.1833 -65.1142 0.760099 20.6329 -0.138361 -9.31343 0.419678 -1.11297 5.20272 23.3891 -24.6761 0.0 0.0 0.0 17.0312 -20.4121 -16.7623 -16.9945 0.319312 2.57888 25.8036 22.7224 -3.56317 22.9122 -0.0 -0.0 -0.0 0.0 -0.0 18.6951 47.4991 -25.3208 -44.8954 0.807214 -6.66957 39.0513 -17.6365 4.89072 19.8833 -0.0 -0.0 0.0 0.0 0.0 
1095.65 697.897 -1431.01 -6.22891 39.1428 14.2662 4.27949 -0.585023 -2.91309 4.28412 -0.398552 -2.94438 4.30154 0.00617376 -2.9712 4.28952 -0.462944 -2.93495 -2.15159 14.8405 0.230756 -1.76989 26.702 2.16151 -0.0 0.0 -0.0 -1.53958 22.2911 0.426994 -19.466 -25.3466 68.7501 1.29874 -32.7539 0.381687 -10.6142 -0.492536 1.26258 0.604589 15.6953 10.1843 -0.0 0.0 -0.0 8.80149 10.1005 -17.2297 -18.0993 23.9559 -65.703 0.618977 17.0469 -0.0927663 -13.9258 0.693214 -1.63572 3.49521 11.3476 -19.0772 0.0 0.0 0.0 12.4812 -19.1373 -17.6535 -7.82994 0.242311 1.1763 23.3549 27.7563 -3.35868 21.3089 -0.0 -0.0 -0.0 0.0 -0.0 29.7064 48.1661 -32.1215 -54.0743 1.59522 -7.84111 34.5523 -19.5586 4.48582 21.2892 -0.0 -0.0 0.0 0.0 0.0 
1086.67 701.817 -1427.48 -6.98454 39.538 14.6063 4.17584 -0.453928 -2.72647 4.17993 -0.279583 -2.74981 4.19077 0.103008 -2.76206 4.18028 -0.334332 -2.7437 -1.49207 13.6126 1.23867 -1.17121 23.5643 2.95861 -0.0 0.0 -0.0 -1.10418 22.6022 1.08211 -16.7126 -27.9912 66.3346 1.39289 -34.6036 0.433904 -11.1274 -0.522211 1.32114 0.95221 14.0658 11.7947 -0.0 0.0 -0.0 8.65168 11.0842 -16.8794 -18.4339 23.9167 -66.2269 0.403626 11.3071 -0.0399569 -9.74459 0.44345 -1.16274 4.67051 19.9826 -22.9481 0.0 0.0 0.0 12.5106 -19.2221 -17.4371 -6.01869 0.200603 0.901485 15.2883 25.6487 -2.24147 16.5193 -0.0 -0.0 -0.0 0.0 -0.0 31.2878 43.4132 -30.6846 -55.4881 1.73298 -8.00993 37.9042 -20.6415 4.84466 21.6759 -0.0 -0.0 0.0 0.0 0.0 
1072.48 706.408 -1433.65 -6.19462 39.2093 14.1401 3.90114 -0.500118 -2.9617 3.90596 -0.310729 -2.98749 3.9195 0.119207 -3.00123 3.90711 -0.356063 -2.98243 -1.64096 15.9377 2.42707 -1.23054 26.8714 4.50483 -0.0 0.0 -0.0 -1.14228 23.3783 1.13995 -12.2607 -24.2261 67.2663 1.4584 -35.844 0.471692 -11.3916 -0.537695 1.35119 -0.177483 17.8506 6.16838 -0.0 0.0 -0.0 8.39112 10.4023 -16.3386 -20.004 24.3285 -65.8771 0.346981 9.75314 -0.0296039 -10.9542 0.512135 -1.3014 3.99972 16.3922 -20.1523 0.0 0.0 0.0 12.1132 -17.2689 -16.1284 -7.08969 0.226316 1.06383 20.2584 27.7722 -2.95208 17.8057 -0.0 -0.0 -0.0 0.0 -0.0 34.3788 45.9568 -34.5295 -53.4159 1.5325 -7.76135 36.7904 -23.2184 4.79842 20.7096 -0.0 -0.0 0.0 0.0 0.0 
1061.34 714.284 -1436.51 -6.37587 39.6212 15.0197 3.74515 -0.485117 -3.06236 3.75032 -0.289363 -3.08699 3.76327 0.163061 -3.09622 3.75004 -0.327738 -3.08315 -1.78961 15.4422 0.675323 -1.36281 27.3829 2.62367 -0.0 0.0 -0.0 -0.464961 23.0554 2.02842 -9.11621 -22.307 66.485 1.54643 -37.4515 0.524241 -11.4541 -0.541376 1.35828 -0.580649 19.4531 4.37797 -0.0 0.0 -0.0 8.04869 10.5903 -15.598 -22.8197 25.7631 -65.4211 0.312507 8.80011 -0.0240465 -13.0225 0.636334 -1.53508 3.94885 12.1831 -21.9248 0.0 0.0 0.0 12.3869 -15.6226 -16.4805 -7.66968 0.238972 1.15193 19.9186 27.5033 -2.90149 15.8411 -0.0 -0.0 -0.0 0.0 -0.0 36.0913 46.3976 -35.4676 -49.4401 1.17376 -7.26515 35.5077 -23.5816 4.67639 19.8544 -0.0 -0.0 0.0 0.0 0.0 
1045.38 715.777 -1444.18 -5.67901 39.0488 14.3155 3.61473 -0.501707 -3.09082 3.61999 -0.304111 -3.11645 3.63404 0.159801 -3.12716 3.62055 -0.335836 -3.11319 -2.909 16.964 1.75959 -2.5189 29.537 4.20462 -0.0 0.0 -0.0 -1.26059 22.9024 0.908091 -7.22684 -22.8848 66.7015 1.80413 -41.7836 0.688682 -11.0932 -0.520218 1.31725 -0.788428 17.9086 2.484 -0.0 0.0 -0.0 7.39299 9.35861 -14.2434 -23.325 25.4877 -65.5037 0.252663 7.13432 -0.0157509 -10.8469 0.505926 -1.28916 3.89024 16.0909 -19.5345 0.0 0.0 0.0 11.3247 -15.5717 -16.4594 -7.85765 0.242882 1.18051 17.9411 25.1928 -2.59758 17.332 -0.0 -0.0 -0.0 0.0 -0.0 36.1062 44.7059 -34.4475 -49.8893 1.21254 -7.32242 34.6488 -22.3243 4.5552 18.5253 -0.0 -0.0 0.0 0.0 0.0 
1039.16 720.844 -1442.7 -5.87293 39.1512 14.6127 3.38084 -0.598911 -3.08168 3.38603 -0.401699 -3.11351 3.40578 0.0752201 -3.13839 3.39228 -0.421129 -3.11094 -4.05107 17.2323 3.2533 -3.77172 29.1352 6.05767 -0.0 0.0 -0.0 -1.21217 22.764 0.95507 -4.50415 -21.1214 66.3985 2.07172 -45.7373 0.873874 -11.3271 -0.533903 1.34386 -1.49955 17.3159 -2.08931 -0.0 0.0 -0.0 7.27038 9.98873 -13.9607 -24.0898 25.9368 -65.9129 0.212729 6.01575 -0.011178 -11.557 0.547462 -1.36997 4.04423 14.674 -21.3568 0.0 0.0 0.0 10.5818 -14.6466 -16.8155 -5.67685 0.191757 0.849771 15.5562 27.3941 -2.30254 16.8803 -0.0 -0.0 -0.0 0.0 -0.0 36.4148 44.9818 -34.2635 -47.5112 1.01239 -7.01587 33.035 -21.4885 4.36526 18.4851 -0.0 -0.0 0.0 0.0 0.0 
